<svg width="103" height="111" viewBox="0 0 103 111" fill="none" xmlns="http://www.w3.org/2000/svg">
<mask id="mask0_185_538" style="mask-type:luminance" maskUnits="userSpaceOnUse" x="52" y="18" width="32" height="34">
<path d="M52.8086 18.8008H83.6117V51.8135H52.8086V18.8008Z" fill="white"/>
</mask>
<g mask="url(#mask0_185_538)">
<path d="M83.1334 30.5195C82.8889 30.2558 82.4738 30.2493 82.2211 30.5051L67.7365 45.1682C67.2714 45.6709 66.5176 45.6709 66.0515 45.1682C65.5875 44.6678 65.5864 43.8537 66.0515 43.3533L79.7062 27.6697C79.9226 27.4211 79.9167 27.0494 79.6927 26.8078C79.443 26.5385 79.0191 26.5318 78.761 26.7931L64.2873 41.4485C63.8222 41.9501 63.0663 41.9501 62.6023 41.4485C62.1372 40.9469 62.1372 40.1317 62.6023 39.6302L76.2558 23.9478C76.4717 23.6998 76.466 23.329 76.2426 23.0877C75.9934 22.8187 75.5701 22.8119 75.3124 23.0728L60.8371 37.7265C60.372 38.2304 59.6171 38.2304 59.1521 37.7265C58.688 37.2272 58.688 36.4132 59.1521 35.9128L72.8151 20.2184C73.0267 19.9754 73.0207 19.6119 72.8013 19.3759C72.5519 19.1076 72.1271 19.1078 71.878 19.3765L54.6337 37.9744C52.4793 40.2978 52.4793 44.0624 54.6337 46.3858L58.0241 50.0421C60.1785 52.3632 63.6726 52.3632 65.8259 50.0421L83.1334 31.3783C83.358 31.1361 83.358 30.7617 83.1334 30.5195Z" fill="url(#paint0_linear_185_538)"/>
</g>
<path d="M58.8022 46.1538C58.0269 45.318 56.7146 45.2869 55.9005 46.0851L19.7002 81.5782C18.0291 83.3816 18.0291 86.3046 19.7002 88.1056C21.3735 89.9113 24.0838 89.9113 25.756 88.1056L58.8658 48.8358C59.5249 48.054 59.4977 46.9035 58.8022 46.1538Z" fill="url(#paint1_linear_185_538)"/>
<path d="M48.6007 47.9625C47.9053 48.7121 47.878 49.8626 48.5371 50.6444L81.6458 89.9142C83.317 91.7199 86.0295 91.7199 87.7017 89.9142C89.3728 88.1131 89.3728 85.1902 87.7017 83.3868L51.5024 47.8937C50.6883 47.0955 49.376 47.1266 48.6007 47.9625Z" fill="url(#paint2_linear_185_538)"/>
<path d="M47.0044 26.9557C40.2151 19.6327 31.5248 17.1329 27.5945 21.3738C23.6642 25.6135 25.9811 34.9831 32.7715 42.3061C39.5597 49.6256 48.25 52.1254 52.1804 47.8891C56.1107 43.6482 53.7938 34.2775 47.0044 26.9557Z" fill="url(#paint3_linear_185_538)"/>
<defs>
<linearGradient id="paint0_linear_185_538" x1="54.579" y1="18.8789" x2="60.2383" y2="54.276" gradientUnits="userSpaceOnUse">
<stop/>
<stop offset="0.66656" stop-color="#A9268D"/>
</linearGradient>
<linearGradient id="paint1_linear_185_538" x1="20.5738" y1="44.6279" x2="28.2849" y2="92.8566" gradientUnits="userSpaceOnUse">
<stop/>
<stop offset="0.66656" stop-color="#A9268D"/>
</linearGradient>
<linearGradient id="paint2_linear_185_538" x1="49.5098" y1="46.4365" x2="57.221" y2="94.6652" gradientUnits="userSpaceOnUse">
<stop/>
<stop offset="0.66656" stop-color="#A9268D"/>
</linearGradient>
<linearGradient id="paint3_linear_185_538" x1="27.1344" y1="19.3086" x2="32.4053" y2="52.2728" gradientUnits="userSpaceOnUse">
<stop/>
<stop offset="0.66656" stop-color="#A9268D"/>
</linearGradient>
</defs>
</svg>
