<svg width="26" height="19" viewBox="0 0 26 19" fill="none" xmlns="http://www.w3.org/2000/svg">
<g clip-path="url(#clip0_727_7916)">
<path fill-rule="evenodd" clip-rule="evenodd" d="M26 4.55191C26.0106 5.16749 25.8879 6.92904 25.6445 9.8472H25.2679V19H23.9984V9.8472H23.7889V0C24.2163 0.0660314 24.5845 0.261996 24.8786 0.585762C25.617 1.34406 25.9894 2.66895 26 4.55191ZM22.6971 9.48296C22.6971 12.0475 21.8 14.2394 20.0057 16.0456C18.2072 17.8562 16.0342 18.7593 13.4867 18.7593C10.9476 18.7593 8.77669 17.8562 6.97396 16.0456C5.17546 14.2394 4.27197 12.0475 4.27197 9.48296C4.27197 6.92691 5.17334 4.74574 6.97396 2.93094C8.77881 1.1204 10.9497 0.210874 13.4867 0.210874C16.0342 0.210874 18.2072 1.11827 20.0057 2.93094C21.8 4.74574 22.6971 6.92691 22.6971 9.48296ZM4.37777 4.94596C4.37777 5.57646 4.11751 6.09619 3.59701 6.5009C3.08285 6.90561 2.82259 7.26132 2.82259 7.5574V19H1.55306V7.5574C1.55306 7.25919 1.29281 6.90561 0.778646 6.5009C0.260254 6.09619 0 5.57859 0 4.94596C0 3.23341 0.376628 1.58049 1.13623 0V4.23879H1.80908V0H2.55387V4.23879H3.24154V0C3.99691 1.58049 4.37777 3.23341 4.37777 4.94596ZM20.2046 9.48296C20.2046 7.6213 19.5529 6.03016 18.2432 4.71166C16.9334 3.39316 15.3486 2.73711 13.4867 2.73711C11.631 2.73711 10.0505 3.39316 8.74707 4.71166C7.43734 6.03016 6.7793 7.6213 6.7793 9.48296C6.7793 11.3489 7.43734 12.94 8.74707 14.2649C10.0505 15.5877 11.631 16.2501 13.4867 16.2501C15.3465 16.2501 16.9313 15.5877 18.2432 14.2649C19.5508 12.94 20.2046 11.3489 20.2046 9.48296ZM19.5317 9.48296C19.5317 11.1657 18.9456 12.6013 17.7629 13.792C16.5843 14.9763 15.1582 15.5728 13.4867 15.5728C11.8257 15.5728 10.4017 14.9763 9.22103 13.792C8.04248 12.6013 7.45215 11.1657 7.45215 9.48296C7.45215 7.81087 8.04248 6.37735 9.22103 5.19305C10.4038 4.00874 11.8257 3.41233 13.4867 3.41233C15.1582 3.41233 16.5864 4.00874 17.7629 5.19305C18.9456 6.37735 19.5317 7.81087 19.5317 9.48296Z" fill="black"/>
</g>
<defs>
<clipPath id="clip0_727_7916">
<rect width="26" height="19" fill="white"/>
</clipPath>
</defs>
</svg>
